<?xml version="1.0" encoding="UTF-8"?> <svg xmlns="http://www.w3.org/2000/svg" width="100" height="100" viewBox="0 0 100 100" fill="none"> <rect width="100" height="100" fill="white"></rect> <path d="M68.6231 49.5328C68.6231 38.8595 59.9393 30.1758 49.2653 30.1758C38.5896 30.1758 29.9043 38.8595 29.9043 49.5328C29.9043 60.2068 38.5896 68.8905 49.2653 68.8905C59.9393 68.8905 68.6231 60.2068 68.6231 49.5328ZM32.605 49.5328C32.605 40.3488 40.079 32.8765 49.2653 32.8765C58.45 32.8765 65.9224 40.348 65.9224 49.5328C65.9224 58.7175 58.45 66.1898 49.2653 66.1898C40.079 66.1898 32.605 58.7175 32.605 49.5328Z" fill="#07D645"></path> <path d="M49.266 27.3015C50.0118 27.3015 50.6159 26.6974 50.6159 25.9515V15.8373C50.6159 15.0914 50.0118 14.4873 49.266 14.4873C48.5201 14.4873 47.916 15.0914 47.916 15.8373V25.9515C47.916 26.6974 48.5201 27.3015 49.266 27.3015Z" fill="#07D645"></path> <path d="M57.7486 28.8632C57.9081 28.9245 58.0716 28.9535 58.2327 28.9535C58.7756 28.9535 59.287 28.624 59.4932 28.0876L63.1235 18.6459C63.3909 17.95 63.0437 17.1687 62.3478 16.9004C61.6511 16.6314 60.8706 16.9802 60.6023 17.6761L56.9721 27.1178C56.7055 27.8145 57.0527 28.5958 57.7486 28.8632Z" fill="#07D645"></path> <path d="M66.8642 33.8642C67.2396 33.8642 67.6133 33.7087 67.8799 33.4034L74.5444 25.8014C75.0357 25.2408 74.9801 24.3878 74.4187 23.8957C73.8589 23.4044 73.0051 23.4591 72.513 24.0213L65.8485 31.6233C65.3572 32.1839 65.4128 33.0369 65.9742 33.5291C66.2303 33.7538 66.5477 33.8642 66.8642 33.8642Z" fill="#07D645"></path> <path d="M70.4379 40.2298C70.6312 40.788 71.1539 41.1384 71.7137 41.1384C71.8603 41.1384 72.0093 41.1142 72.1551 41.0643L81.7217 37.7514C82.4264 37.5073 82.8002 36.7381 82.5561 36.0342C82.3121 35.3294 81.5412 34.9556 80.8389 35.1997L71.2723 38.5118C70.5667 38.7566 70.193 39.5258 70.4379 40.2298Z" fill="#07D645"></path> <path d="M83.6489 48.9863H73.5282C72.7823 48.9863 72.1782 49.5904 72.1782 50.3363C72.1782 51.0822 72.7823 51.6863 73.5282 51.6863H83.6489C84.3947 51.6863 84.9996 51.0822 84.9996 50.3363C84.9996 49.5904 84.3947 48.9863 83.6489 48.9863Z" fill="#07D645"></path> <path d="M49.266 71.958C48.5201 71.958 47.916 72.5621 47.916 73.308V83.423C47.916 84.1689 48.5201 84.773 49.266 84.773C50.0118 84.773 50.6159 84.1689 50.6159 83.423V73.308C50.6159 72.5629 50.0118 71.958 49.266 71.958Z" fill="#07D645"></path> <path d="M59.4941 71.1712C59.2267 70.4753 58.4454 70.1265 57.7487 70.3956C57.0528 70.6638 56.7056 71.4443 56.973 72.141L60.6033 81.5827C60.8095 82.1199 61.3217 82.4486 61.8638 82.4486C62.0249 82.4486 62.1884 82.4196 62.3479 82.3584C63.0438 82.0901 63.391 81.3096 63.1236 80.6129L59.4941 71.1712Z" fill="#07D645"></path> <path d="M67.8801 65.8557C67.388 65.2943 66.535 65.2395 65.9744 65.7301C65.4138 66.2214 65.3574 67.0744 65.8488 67.6358L72.5132 75.2394C72.7806 75.5439 73.1535 75.7001 73.5289 75.7001C73.8454 75.7001 74.1628 75.5898 74.4181 75.3651C74.9787 74.8737 75.0351 74.0207 74.5438 73.4593L67.8801 65.8557Z" fill="#07D645"></path> <path d="M81.7226 61.5094L72.1561 58.1949C71.4521 57.9508 70.6829 58.3238 70.4381 59.0286C70.194 59.7333 70.5669 60.5026 71.2717 60.7466L80.8382 64.0611C80.9848 64.1119 81.1339 64.136 81.2804 64.136C81.8402 64.136 82.363 63.7856 82.5563 63.2274C82.8004 62.5227 82.4274 61.7534 81.7226 61.5094Z" fill="#07D645"></path> <path d="M40.0186 28.0898C40.2248 28.6262 40.7371 28.9557 41.2792 28.9557C41.4403 28.9557 41.6038 28.9267 41.7641 28.8654C42.46 28.5972 42.8072 27.8159 42.5397 27.12L38.9087 17.6799C38.6413 16.9848 37.8616 16.6352 37.1632 16.9043C36.4673 17.1725 36.1202 17.9538 36.3876 18.6497L40.0186 28.0898Z" fill="#07D645"></path> <path d="M31.633 33.4054C31.9004 33.7099 32.2733 33.8661 32.6487 33.8661C32.9652 33.8661 33.2826 33.7558 33.5379 33.5311C34.0985 33.0397 34.1549 32.1867 33.6635 31.6253L26.9983 24.0217C26.5062 23.4603 25.6532 23.4055 25.0926 23.8961C24.532 24.3874 24.4756 25.2404 24.9669 25.8018L31.633 33.4054Z" fill="#07D645"></path> <path d="M17.7904 37.7544L27.3569 41.0657C27.5035 41.1156 27.6525 41.1398 27.7983 41.1398C28.3581 41.1398 28.8809 40.7894 29.0742 40.2312C29.3183 39.5265 28.9445 38.7572 28.2397 38.5132L18.6732 35.2019C17.9684 34.9595 17.1992 35.3324 16.9551 36.0364C16.7119 36.7412 17.0856 37.5096 17.7904 37.7544Z" fill="#07D645"></path> <path d="M27.3336 50.3382C27.3336 49.5924 26.7287 48.9883 25.9829 48.9883H15.8622C15.1163 48.9883 14.5122 49.5924 14.5122 50.3382C14.5122 51.0841 15.1163 51.6882 15.8622 51.6882H25.9829C26.7287 51.6882 27.3336 51.0833 27.3336 50.3382Z" fill="#07D645"></path> <path d="M41.7636 70.3982C41.0685 70.1299 40.2864 70.4779 40.0181 71.1738L36.3871 80.6163C36.1197 81.3122 36.4668 82.0935 37.1628 82.3618C37.3222 82.423 37.4858 82.452 37.6468 82.452C38.1897 82.452 38.7012 82.1225 38.9074 81.5861L42.5384 72.1436C42.8075 71.4477 42.4603 70.6664 41.7636 70.3982Z" fill="#07D645"></path> <path d="M31.633 65.8588L24.9678 73.46C24.4764 74.0206 24.532 74.8736 25.0926 75.3657C25.3488 75.5904 25.6661 75.7008 25.9827 75.7008C26.358 75.7008 26.7317 75.5453 26.9983 75.2409L33.6636 67.6397C34.1549 67.0791 34.0993 66.2261 33.5387 65.7339C32.9781 65.2426 32.1251 65.2966 31.633 65.8588Z" fill="#07D645"></path> <path d="M29.0751 59.0306C28.831 58.3258 28.0634 57.9512 27.357 58.1961L17.7905 61.5074C17.0857 61.7514 16.712 62.5206 16.956 63.2254C17.1493 63.7836 17.6729 64.134 18.2319 64.134C18.3785 64.134 18.5275 64.1098 18.6733 64.0599L28.2398 60.7486C28.9454 60.5046 29.3191 59.7353 29.0751 59.0306Z" fill="#07D645"></path> </svg> 