<?xml version="1.0" encoding="UTF-8"?> <svg xmlns="http://www.w3.org/2000/svg" width="100" height="100" viewBox="0 0 100 100" fill="none"> <rect width="100" height="100" fill="white"></rect> <path d="M49.5924 31.4756C39.7751 31.4756 31.7881 39.4656 31.7881 49.2872C31.7881 54.9415 34.4639 60.2197 38.9787 63.5751V75.606C38.9787 76.2144 39.4717 76.7081 40.0808 76.7081H41.8514C42.3892 80.5044 45.6506 83.4359 49.5924 83.4359C53.5355 83.4359 56.7991 80.5044 57.3377 76.7081H58.8982C59.5066 76.7081 60.0003 76.2144 60.0003 75.606V63.7294C64.6407 60.3777 67.4018 55.0202 67.4018 49.2872C67.4018 39.4656 59.4125 31.4756 49.5924 31.4756ZM49.5924 81.2325C46.8688 81.2325 44.5919 79.2847 44.0791 76.7088H55.1108C54.5965 79.284 52.3181 81.2325 49.5924 81.2325ZM57.7961 74.504H41.1828V64.1093H57.7961V74.504ZM52.7737 50.257V61.9051H46.2002V50.257H52.7737ZM58.763 61.9051H54.9778V50.257H58.4567C59.065 50.257 59.5587 49.7633 59.5587 49.1549C59.5587 48.5459 59.065 48.0529 58.4567 48.0529H40.5216C39.9125 48.0529 39.4195 48.5459 39.4195 49.1549C39.4195 49.7633 39.9125 50.257 40.5216 50.257H43.9953V61.9051H40.4276C36.3903 58.97 33.9915 54.2972 33.9915 49.2872C33.9915 40.6815 40.9896 33.6797 49.5916 33.6797C58.1958 33.6797 65.1969 40.6808 65.1969 49.2872C65.1976 54.2891 62.7988 58.9648 58.763 61.9051Z" fill="#07D645"></path> <path d="M49.4863 27.7722C50.0947 27.7722 50.5884 27.2792 50.5884 26.6702V15.5562C50.5884 14.9471 50.0947 14.4541 49.4863 14.4541C48.8773 14.4541 48.3843 14.9471 48.3843 15.5562V26.6702C48.3843 27.2792 48.8773 27.7722 49.4863 27.7722Z" fill="#07D645"></path> <path d="M25.2151 48.0527H14.1011C13.492 48.0527 12.999 48.5457 12.999 49.1548C12.999 49.7631 13.492 50.2569 14.1011 50.2569H25.2151C25.8241 50.2569 26.3171 49.7631 26.3171 49.1548C26.3171 48.5465 25.8241 48.0527 25.2151 48.0527Z" fill="#07D645"></path> <path d="M83.8979 48.0527H72.7891C72.1807 48.0527 71.687 48.5457 71.687 49.1548C71.687 49.7631 72.1807 50.2569 72.7891 50.2569H83.8979C84.5063 50.2569 85 49.7631 85 49.1548C85 48.5465 84.5063 48.0527 83.8979 48.0527Z" fill="#07D645"></path> <path d="M31.9439 33.4066C32.1526 33.5896 32.4112 33.6785 32.6683 33.6785C32.9755 33.6785 33.2811 33.5506 33.4986 33.3008C33.899 32.8424 33.8512 32.1466 33.3928 31.7462L25.0222 24.4387C24.5645 24.0383 23.8672 24.0861 23.4676 24.5445C23.0671 25.003 23.1149 25.6988 23.5733 26.0992L31.9439 33.4066Z" fill="#07D645"></path> <path d="M64.4139 33.6785C64.6711 33.6785 64.929 33.5889 65.1376 33.4067L73.5126 26.0992C73.9711 25.6988 74.0181 25.0031 73.6184 24.5439C73.2195 24.0854 72.5222 24.0369 72.0637 24.4381L63.6888 31.7455C63.2303 32.1459 63.1833 32.8417 63.583 33.3009C63.8004 33.5514 64.1061 33.6785 64.4139 33.6785Z" fill="#07D645"></path> </svg> 